<svg xmlns="http://www.w3.org/2000/svg" height="800" width="1200" fill="none" viewBox="-74.04 -31.475 641.68 188.85"><path fill="#f0b90b" d="M177.7 62.9h-23.2V14.1h22.7c10 0 16.1 5 16.1 12.6v.1c0 5.5-2.9 8.6-6.4 10.5 5.6 2.2 9.1 5.4 9.1 12v.1c0 9.1-7.2 13.5-18.3 13.5zm4.9-34.3c0-3.2-2.5-5-7-5H165v10.3h9.9c4.7 0 7.7-1.5 7.7-5.2zm2.7 19.5c0-3.3-2.4-5.3-7.9-5.3H165v10.7h12.8c4.7 0 7.6-1.7 7.6-5.3v-.1zm22.5 14.8V14.1h10.7v48.8zm59.3 0l-23.6-31v31h-10.6V14.1h9.9l22.9 30.1V14.1h10.6v48.8zm57.4 0L320 52h-20.6l-4.5 10.9H284l20.9-49.2h9.9l20.9 49.2zm-14.8-36.2l-6.5 15.8h13zm68.1 36.2l-23.6-31v31h-10.6V14.1h9.9l22.9 30.1V14.1H387v48.8zm44.5.9c-14.4 0-25-11.1-25-25.1v-.1c0-13.9 10.5-25.2 25.5-25.2 9.2 0 14.7 3.1 19.2 7.5l-6.8 7.9c-3.8-3.4-7.6-5.5-12.5-5.5-8.2 0-14.2 6.8-14.2 15.2v.1c0 8.4 5.8 15.3 14.2 15.3 5.6 0 9-2.2 12.8-5.7l6.8 6.9c-5 5.3-10.5 8.7-20 8.7zm28.7-.9V14.1h36.8v9.6h-26.1v9.9h23v9.6h-23v10.2h26.5V63H451zm-191.9 48.8h-6.4l-3.5-8.3h-16.3l-3.6 8.3h-6.2l15.2-34.8h5.6zM241 84.2L235.1 98H247zm39.5 28.1c-10.1 0-17.6-7.8-17.6-17.8 0-9.9 7.4-17.9 17.8-17.9 6.4 0 10.2 2.2 13.5 5.4l-3.9 4.5c-2.8-2.6-5.7-4.3-9.7-4.3-6.6 0-11.4 5.4-11.4 12.2 0 6.8 4.8 12.3 11.4 12.3 4.2 0 7-1.7 9.9-4.5l3.9 3.9c-3.4 3.8-7.4 6.2-13.9 6.2zm55.2-.6h-6.4l-3.5-8.3h-16.3l-3.6 8.3h-6.2l15.2-34.8h5.6zm-18.1-27.5L311.7 98h11.9zm38.5 27.5h-12.9V77.1h12.9c10.9 0 18.4 7.5 18.4 17.2-.1 9.9-7.6 17.4-18.4 17.4zm0-29h-6.8v23.5h6.8c7.3 0 12-4.9 12-11.7 0-6.8-4.8-11.8-12-11.8zm53.1-.1h-19.5v9H407V97h-17.3v9.3h19.8v5.4h-25.9V77.1h25.6zm26.5 20.6h-.2L424.7 87v24.7h-6V77.1h6.5l10.5 16.3 10.5-16.3h6.5v34.6h-6.1V86.9zm44 8.5h-6.1V98.1l-13.7-20.9h7.2l9.7 15.3 9.8-15.3h7L479.9 98v13.7zM211 91.6h-56.5v5.8H211zM14.2 48.7L0 62.9l14.2 14.2 14.2-14.2zM63 28.4l24.4 24.4 14.2-14.2L63 0 24.4 38.6l14.2 14.2zm48.8 20.3L97.6 62.9l14.2 14.2L126 62.9zM63 97.5L38.6 73.1 24.4 87.3 63 125.9l38.6-38.6-14.2-14.2zm0-20.3L77.2 63 63 48.8 48.8 63z"/></svg>