<svg width="397" height="80" viewBox="0 0 397 80" fill="none" xmlns="http://www.w3.org/2000/svg">
  <path d="M108.53 75.6899L90.81 57.9399C88.79 55.9199 88.79 52.6999 90.81 50.6799L108.53 32.9399C109.54 31.9299 110.93 31.3599 112.39 31.3599H152.45C155.14 31.3599 156.71 34.4699 155.07 36.5299L137.35 59.2699C136.34 60.6499 134.61 61.4299 132.78 61.4299H112.39C110.93 61.4299 109.54 60.8599 108.53 59.8499V75.6899Z" fill="url(#paint0_linear)"/>
  <path d="M108.53 7.42994L90.81 25.1799C88.79 27.1999 88.79 30.4199 90.81 32.4399L108.53 50.1899C109.54 51.1999 110.93 51.7699 112.39 51.7699H152.45C155.14 51.7699 156.71 48.6599 155.07 46.5999L137.35 23.8599C136.34 22.4799 134.61 21.6999 132.78 21.6999H112.39C110.93 21.6999 109.54 22.2699 108.53 23.2799V7.42994Z" fill="url(#paint1_linear)"/>
  <path d="M45.1301 26.7099L62.8501 9.00994C63.8601 7.99994 65.2501 7.42994 66.7101 7.42994H106.77C109.46 7.42994 111.03 10.5399 109.39 12.5999L91.6701 35.3399C90.6601 36.7199 88.9301 37.4999 87.1001 37.4999H66.7101C65.2501 37.4999 63.8601 36.9299 62.8501 35.9199L45.1301 18.1999C43.1101 16.1799 43.1101 12.9599 45.1301 10.9399V26.7099Z" fill="url(#paint2_linear)"/>
  <defs>
    <linearGradient id="paint0_linear" x1="103.47" y1="26.37" x2="144.17" y2="66.96" gradientUnits="userSpaceOnUse">
      <stop stop-color="#00FFA3"/>
      <stop offset="1" stop-color="#DC1FFF"/>
    </linearGradient>
    <linearGradient id="paint1_linear" x1="114.27" y1="38.24" x2="73.57" y2="-2.35" gradientUnits="userSpaceOnUse">
      <stop stop-color="#00FFA3"/>
      <stop offset="1" stop-color="#DC1FFF"/>
    </linearGradient>
    <linearGradient id="paint2_linear" x1="96.97" y1="3.37" x2="56.27" y2="43.96" gradientUnits="userSpaceOnUse">
      <stop stop-color="#00FFA3"/>
      <stop offset="1" stop-color="#DC1FFF"/>
    </linearGradient>
  </defs>
</svg>
